<svg xmlns="http://www.w3.org/2000/svg" viewBox="0 0 512 512" width="512" height="512">
  <g transform="translate(256, 256)">
    <g transform="rotate(45)">
      <rect x="-160" y="-160" width="320" height="320" rx="48" fill="#fde047" />
    </g>
    <g transform="scale(11)">
      <path d="M4 14a1 1 0 0 1-.78-1.63l9.9-10.2a.5.5 0 0 1 .86.46l-1.92 6.02A1 1 0 0 0 13 10h7a1 1 0 0 1 .78 1.63l-9.9 10.2a.5.5 0 0 1-.86-.46l1.92-6.02A1 1 0 0 0 11 14z" 
            fill="#09090b" 
            transform="translate(-12, -12)" />
    </g>
  </g>
</svg>
